# xmcd
#
# Track frame offsets:
#	150
#	11460
#	32373
#	54226
#	66883
#	80262
#	102796
#	126526
#	140019
#	156725
#	177375
#	193246
#	209953
#	226264
#
# Disc length: 3729 seconds
#
# Revision: 1
# Processed by: cddbd v1.5.2PL0 Copyright (c) Steve Scherf et al.
# Submitted via: audiograbber 1.83.01
#
DISCID=ca0e8f0e
DTITLE=Freddy Tezzele, Klaus E. Kofler - Wiener Blue(s)
DYEAR=2005
DGENRE=2005
TTITLE0=Gemma schaun
TTITLE1=I bin a Schabernack
TTITLE2=Bin ich ein Laternanzünder
TTITLE3=I bitt Sie Fräulein Mizzi
TTITLE4=I bin a Weh
TTITLE5=glasscherb'ntanz
TTITLE6=A picktes Häferl
TTITLE7=Vergänglichkeit
TTITLE8=Moralischer
TTITLE9=Bevur'st deppat red'st
TTITLE10=Drauß't in da Vorstadt
TTITLE11=Die Mordthat auf der Mölkerbastei
TTITLE12=Da d'runt im liachtenthal
TTITLE13=Rotwelsch, Nix, No imma nix
EXTD=
EXTT0=
EXTT1=
EXTT2=
EXTT3=
EXTT4=
EXTT5=
EXTT6=
EXTT7=
EXTT8=
EXTT9=
EXTT10=
EXTT11=
EXTT12=
EXTT13=
PLAYORDER=
